<?xml version="1.0" standalone="no"?><!DOCTYPE svg PUBLIC "-//W3C//DTD SVG 1.1//EN" "http://www.w3.org/Graphics/SVG/1.1/DTD/svg11.dtd"><svg class="icon" width="200px" height="177.78px" viewBox="0 0 1152 1024" version="1.1" xmlns="http://www.w3.org/2000/svg"><path d="M1056 112c0-26.6-21.4-48-48-48s-48 21.4-48 48v16H64C28.6 128 0 156.6 0 192v224c0 35.4 28.6 64 64 64h20c41.6 0 72.2 39.2 62 79.6L66 880.4c-4.8 19.2-0.4 39.4 11.6 55S108.2 960 128 960h192c29.4 0 55-20 62-48.4L434 704h208.8c47.4 0 89.6-29.8 105.4-74.4l53.6-149.6H864c17 0 33.2-6.8 45.2-18.8l45.4-45.2H1088c35.4 0 64-28.6 64-64V192c0-35.4-28.6-64-64-64h-32v-16zM642.8 608H458l32-128h210l-42 117.4c-2.2 6.4-8.4 10.6-15 10.6zM160 256h768c17.6 0 32 14.4 32 32s-14.4 32-32 32H160c-17.6 0-32-14.4-32-32s14.4-32 32-32z" /></svg>